<?xml version="1.0" encoding="UTF-8" standalone="no"?>
<!-- Created with Inkscape (http://www.inkscape.org/) -->

<svg
   xmlns:dc="http://purl.org/dc/elements/1.1/"
   xmlns:cc="http://creativecommons.org/ns#"
   xmlns:rdf="http://www.w3.org/1999/02/22-rdf-syntax-ns#"
   xmlns:svg="http://www.w3.org/2000/svg"
   xmlns="http://www.w3.org/2000/svg"
   xmlns:sodipodi="http://sodipodi.sourceforge.net/DTD/sodipodi-0.dtd"
   xmlns:inkscape="http://www.inkscape.org/namespaces/inkscape"
   id="svg2"
   version="1.1"
   inkscape:version="0.91 r13725"
   xml:space="preserve"
   width="625"
   height="375"
   viewBox="0 0 625 375"
   sodipodi:docname="logo.svg"><metadata
     id="metadata8"><rdf:RDF><cc:Work
         rdf:about=""><dc:format>image/svg+xml</dc:format><dc:type
           rdf:resource="http://purl.org/dc/dcmitype/StillImage" /><dc:title /></cc:Work></rdf:RDF></metadata><defs
     id="defs6"><clipPath
       clipPathUnits="userSpaceOnUse"
       id="clipPath16"><path
         d="M 0,300 500,300 500,0 0,0 0,300 Z"
         id="path18"
         inkscape:connector-curvature="0" /></clipPath></defs><sodipodi:namedview
     pagecolor="#ffffff"
     bordercolor="#666666"
     borderopacity="1"
     objecttolerance="10"
     gridtolerance="10"
     guidetolerance="10"
     inkscape:pageopacity="0"
     inkscape:pageshadow="2"
     inkscape:window-width="1122"
     inkscape:window-height="720"
     id="namedview4"
     showgrid="false"
     inkscape:zoom="0.5488"
     inkscape:cx="349.33164"
     inkscape:cy="157.28804"
     inkscape:window-x="221"
     inkscape:window-y="0"
     inkscape:window-maximized="0"
     inkscape:current-layer="g14" /><g
     id="g10"
     inkscape:groupmode="layer"
     inkscape:label="free_logo_19"
     transform="matrix(1.25,0,0,-1.25,0,375)"><g
       id="g12"><g
         id="g14"
         clip-path="url(#clipPath16)"><path
           inkscape:connector-curvature="0"
           id="path22"
           style="fill:none;stroke:#33aa33;stroke-width:20;stroke-linecap:square;stroke-linejoin:miter;stroke-miterlimit:3;stroke-dasharray:none;stroke-opacity:1"
           d="m 261.4004,93.6504 -5.2,6 m -71.95,16.05 c -14.701,18.366 -22.05,38.9 -22.05,61.599 0,24 8.416,44.451 25.25,61.351 16.599,16.533 36.65,24.95 60.15,25.25 23.499,-0.3 43.6,-8.717 60.3,-25.25 16.833,-16.9 25.25,-37.351 25.25,-61.351 0,-22.699 -6.35323,-41.94454 -21.11923,-60.31054 l -35.6,-38.151"
           sodipodi:nodetypes="cccscccscc"
           inkscape:export-xdpi="90"
           inkscape:export-ydpi="90" /><path
           inkscape:connector-curvature="0"
           id="path26"
           style="fill:none;stroke:#33aa33;stroke-width:20;stroke-linecap:round;stroke-linejoin:round;stroke-miterlimit:3;stroke-dasharray:none;stroke-opacity:1"
           d="m 217.9502,144.1504 c -2.467,2.6 -4.184,5.449 -5.15,8.55 -1.1,3.133 -1.433,6.466 -1,10 0.366,7.133 3.267,13 8.7,17.599 5.333,4.5 11.45,6.417 18.35,5.75 4.133,-0.199 7.8,-1.349 11,-3.449 2.3,-1.234 4.367,-2.934 6.2,-5.1 l 27.5,-31.8"
           inkscape:export-xdpi="90"
           inkscape:export-ydpi="90" /><path
           inkscape:connector-curvature="0"
           id="path30"
           style="fill:none;stroke:#33aa33;stroke-width:20;stroke-linecap:square;stroke-linejoin:round;stroke-miterlimit:3;stroke-dasharray:none;stroke-opacity:1"
           d="M 274.24079,79.353644 261.4004,93.6508"
           sodipodi:nodetypes="cc"
           inkscape:export-xdpi="90"
           inkscape:export-ydpi="90" /><path
           inkscape:connector-curvature="0"
           id="path34"
           style="fill:none;stroke:#33aa33;stroke-width:20;stroke-linecap:round;stroke-linejoin:miter;stroke-miterlimit:3;stroke-dasharray:none;stroke-opacity:1"
           d="m 247.8501,43.2002 -63.6,72.5 m 71.95,-16.05 -38.25,44.5"
           inkscape:export-xdpi="90"
           inkscape:export-ydpi="90" /></g></g></g></svg>